<mxfile host="app.diagrams.net" modified="2023-11-03T08:28:48.220Z" agent="Mozilla/5.0 (Windows NT 10.0; Win64; x64) AppleWebKit/537.36 (KHTML, like Gecko) Chrome/118.0.0.0 Safari/537.36 Edg/118.0.2088.69" etag="_oH_07XprB4KZjVtkHVl" version="22.0.8" type="device">
  <diagram name="Page-1" id="D3ueXFO36QCpATp4rCDa">
    <mxGraphModel dx="279" dy="-471" grid="1" gridSize="10" guides="1" tooltips="1" connect="1" arrows="1" fold="1" page="1" pageScale="1" pageWidth="850" pageHeight="1100" math="0" shadow="0">
      <root>
        <mxCell id="0" />
        <mxCell id="1" parent="0" />
        <mxCell id="HEfH68VueTfFA_sg0faj-1" value="" style="html=1;points=[];perimeter=orthogonalPerimeter;fontSize=14;fillColor=#FFFFFF;" vertex="1" parent="1">
          <mxGeometry x="1012.5" y="1676" width="10" height="340" as="geometry" />
        </mxCell>
        <mxCell id="HEfH68VueTfFA_sg0faj-2" value="" style="shape=umlLifeline;participant=umlActor;perimeter=lifelinePerimeter;whiteSpace=wrap;html=1;container=1;collapsible=0;recursiveResize=0;verticalAlign=top;spacingTop=36;outlineConnect=0;fontSize=14;fillColor=#FFFFFF;" vertex="1" parent="1">
          <mxGeometry x="1007.5" y="1616" width="20" height="60" as="geometry" />
        </mxCell>
        <mxCell id="HEfH68VueTfFA_sg0faj-3" value="" style="html=1;points=[];perimeter=orthogonalPerimeter;fontSize=14;fillColor=#FFFFFF;" vertex="1" parent="1">
          <mxGeometry x="1175.17" y="1706" width="10" height="270" as="geometry" />
        </mxCell>
        <mxCell id="HEfH68VueTfFA_sg0faj-4" value="Вход пользователя" style="html=1;verticalAlign=bottom;endArrow=open;entryX=0;entryY=0;rounded=0;fontSize=12;endFill=0;" edge="1" parent="1" target="HEfH68VueTfFA_sg0faj-3">
          <mxGeometry relative="1" as="geometry">
            <mxPoint x="1022.4966666666664" y="1706" as="sourcePoint" />
          </mxGeometry>
        </mxCell>
        <mxCell id="HEfH68VueTfFA_sg0faj-5" value="&lt;font style=&quot;font-size: 12px;&quot;&gt;Клиентское приложение&lt;/font&gt;" style="html=1;fontSize=14;fillColor=#FFFFFF;" vertex="1" parent="1">
          <mxGeometry x="1102.83" y="1616" width="154.67" height="40" as="geometry" />
        </mxCell>
        <mxCell id="HEfH68VueTfFA_sg0faj-6" value="" style="html=1;verticalAlign=bottom;endArrow=none;dashed=1;endSize=8;rounded=0;fontSize=14;exitX=0.5;exitY=1;exitDx=0;exitDy=0;endFill=0;entryX=0.495;entryY=-0.008;entryDx=0;entryDy=0;entryPerimeter=0;" edge="1" parent="1" source="HEfH68VueTfFA_sg0faj-5" target="HEfH68VueTfFA_sg0faj-3">
          <mxGeometry relative="1" as="geometry">
            <mxPoint x="1217.5" y="1816" as="sourcePoint" />
            <mxPoint x="1192.5" y="1676" as="targetPoint" />
          </mxGeometry>
        </mxCell>
        <mxCell id="HEfH68VueTfFA_sg0faj-7" value="&lt;font style=&quot;font-size: 12px;&quot;&gt;Бизнес логика&lt;/font&gt;" style="html=1;fontSize=14;fillColor=#FFFFFF;" vertex="1" parent="1">
          <mxGeometry x="1282.5" y="1616" width="105" height="40" as="geometry" />
        </mxCell>
        <mxCell id="HEfH68VueTfFA_sg0faj-8" value="" style="html=1;verticalAlign=bottom;endArrow=none;dashed=1;endSize=8;rounded=0;fontSize=14;exitX=0.5;exitY=1;exitDx=0;exitDy=0;endFill=0;" edge="1" parent="1" source="HEfH68VueTfFA_sg0faj-7" target="HEfH68VueTfFA_sg0faj-10">
          <mxGeometry relative="1" as="geometry">
            <mxPoint x="1207.83" y="1666" as="sourcePoint" />
            <mxPoint x="1335.5" y="1696" as="targetPoint" />
          </mxGeometry>
        </mxCell>
        <mxCell id="HEfH68VueTfFA_sg0faj-9" value="Имитация платежа&lt;br&gt;/перевода" style="html=1;verticalAlign=bottom;endArrow=open;entryX=0;entryY=0;rounded=0;fontSize=12;endFill=0;" edge="1" parent="1">
          <mxGeometry x="-0.0175" y="8" relative="1" as="geometry">
            <mxPoint x="1022.4966666666664" y="1756" as="sourcePoint" />
            <mxPoint x="1175.17" y="1756" as="targetPoint" />
            <mxPoint as="offset" />
          </mxGeometry>
        </mxCell>
        <mxCell id="HEfH68VueTfFA_sg0faj-10" value="" style="html=1;points=[];perimeter=orthogonalPerimeter;fontSize=14;fillColor=#FFFFFF;" vertex="1" parent="1">
          <mxGeometry x="1330" y="1816" width="10" height="130" as="geometry" />
        </mxCell>
        <mxCell id="HEfH68VueTfFA_sg0faj-11" value="Инициализация&lt;br&gt;&amp;nbsp;процесса" style="html=1;verticalAlign=bottom;endArrow=open;rounded=0;fontSize=12;endFill=0;" edge="1" parent="1">
          <mxGeometry x="-0.0187" relative="1" as="geometry">
            <mxPoint x="1187.6666666666665" y="1816" as="sourcePoint" />
            <mxPoint x="1330" y="1816" as="targetPoint" />
            <mxPoint as="offset" />
          </mxGeometry>
        </mxCell>
        <mxCell id="HEfH68VueTfFA_sg0faj-12" value="&lt;font style=&quot;font-size: 12px;&quot;&gt;Транзакция&lt;/font&gt;" style="html=1;fontSize=14;fillColor=#FFFFFF;" vertex="1" parent="1">
          <mxGeometry x="1427.5" y="1616" width="105" height="40" as="geometry" />
        </mxCell>
        <mxCell id="HEfH68VueTfFA_sg0faj-13" value="" style="html=1;verticalAlign=bottom;endArrow=none;dashed=1;endSize=8;rounded=0;fontSize=14;exitX=0.5;exitY=1;exitDx=0;exitDy=0;endFill=0;" edge="1" parent="1" source="HEfH68VueTfFA_sg0faj-12" target="HEfH68VueTfFA_sg0faj-14">
          <mxGeometry relative="1" as="geometry">
            <mxPoint x="1352.83" y="1666" as="sourcePoint" />
            <mxPoint x="1480.5" y="1696" as="targetPoint" />
          </mxGeometry>
        </mxCell>
        <mxCell id="HEfH68VueTfFA_sg0faj-14" value="" style="html=1;points=[];perimeter=orthogonalPerimeter;fontSize=14;fillColor=#FFFFFF;" vertex="1" parent="1">
          <mxGeometry x="1475" y="1896" width="10" height="30" as="geometry" />
        </mxCell>
        <mxCell id="HEfH68VueTfFA_sg0faj-15" value="Запрос к бд" style="html=1;verticalAlign=bottom;endArrow=open;rounded=0;fontSize=12;entryX=-0.198;entryY=0.613;entryDx=0;entryDy=0;entryPerimeter=0;endFill=0;" edge="1" parent="1">
          <mxGeometry relative="1" as="geometry">
            <mxPoint x="1339.9966666666664" y="1897" as="sourcePoint" />
            <mxPoint x="1473.02" y="1897.3400000000001" as="targetPoint" />
          </mxGeometry>
        </mxCell>
        <mxCell id="HEfH68VueTfFA_sg0faj-16" value="" style="endArrow=open;html=1;rounded=0;fontSize=12;dashed=1;endFill=0;entryX=1.118;entryY=0.943;entryDx=0;entryDy=0;entryPerimeter=0;exitX=-0.198;exitY=0.98;exitDx=0;exitDy=0;exitPerimeter=0;" edge="1" parent="1">
          <mxGeometry width="50" height="50" relative="1" as="geometry">
            <mxPoint x="1473.02" y="1924.8000000000002" as="sourcePoint" />
            <mxPoint x="1341.1800000000003" y="1925.0100000000002" as="targetPoint" />
          </mxGeometry>
        </mxCell>
        <mxCell id="HEfH68VueTfFA_sg0faj-17" value="&lt;span style=&quot;color: rgb(0, 0, 0); font-family: Helvetica; font-size: 12px; font-style: normal; font-variant-ligatures: normal; font-variant-caps: normal; font-weight: 400; letter-spacing: normal; orphans: 2; text-align: center; text-indent: 0px; text-transform: none; widows: 2; word-spacing: 0px; -webkit-text-stroke-width: 0px; background-color: rgb(255, 255, 255); text-decoration-thickness: initial; text-decoration-style: initial; text-decoration-color: initial; float: none; display: inline !important;&quot;&gt;Ответ&lt;/span&gt;" style="text;whiteSpace=wrap;html=1;fontSize=12;" vertex="1" parent="1">
          <mxGeometry x="1377.5" y="1899" width="100" height="40" as="geometry" />
        </mxCell>
        <mxCell id="HEfH68VueTfFA_sg0faj-18" value="Выполнение &lt;br style=&quot;font-size: 12px;&quot;&gt;функций" style="edgeStyle=orthogonalEdgeStyle;html=1;align=left;spacingLeft=2;endArrow=block;rounded=0;fontSize=12;entryX=1.173;entryY=0.192;entryDx=0;entryDy=0;entryPerimeter=0;" edge="1" parent="1">
          <mxGeometry relative="1" as="geometry">
            <mxPoint x="1340" y="1824" as="sourcePoint" />
            <Array as="points">
              <mxPoint x="1370.5" y="1824" />
              <mxPoint x="1370.5" y="1845" />
            </Array>
            <mxPoint x="1341.73" y="1845.12" as="targetPoint" />
          </mxGeometry>
        </mxCell>
        <mxCell id="HEfH68VueTfFA_sg0faj-19" value="" style="endArrow=open;html=1;rounded=0;fontSize=12;dashed=1;endFill=0;exitX=-0.198;exitY=0.98;exitDx=0;exitDy=0;exitPerimeter=0;" edge="1" parent="1">
          <mxGeometry width="50" height="50" relative="1" as="geometry">
            <mxPoint x="1330" y="1945" as="sourcePoint" />
            <mxPoint x="1187.5" y="1945" as="targetPoint" />
          </mxGeometry>
        </mxCell>
        <mxCell id="HEfH68VueTfFA_sg0faj-20" value="" style="html=1;verticalAlign=bottom;endArrow=none;dashed=1;endSize=8;rounded=0;fontSize=14;exitX=0.5;exitY=1;exitDx=0;exitDy=0;endFill=0;" edge="1" parent="1">
          <mxGeometry relative="1" as="geometry">
            <mxPoint x="1334.58" y="1946" as="sourcePoint" />
            <mxPoint x="1334.5" y="2066" as="targetPoint" />
          </mxGeometry>
        </mxCell>
        <mxCell id="HEfH68VueTfFA_sg0faj-21" value="" style="html=1;verticalAlign=bottom;endArrow=none;dashed=1;endSize=8;rounded=0;fontSize=14;exitX=1.023;exitY=0.678;exitDx=0;exitDy=0;endFill=0;exitPerimeter=0;" edge="1" parent="1" source="HEfH68VueTfFA_sg0faj-17">
          <mxGeometry relative="1" as="geometry">
            <mxPoint x="1479.6599999999999" y="2016" as="sourcePoint" />
            <mxPoint x="1479.5" y="2066" as="targetPoint" />
          </mxGeometry>
        </mxCell>
        <mxCell id="HEfH68VueTfFA_sg0faj-22" value="" style="html=1;verticalAlign=bottom;endArrow=none;dashed=1;endSize=8;rounded=0;fontSize=14;endFill=0;" edge="1" parent="1">
          <mxGeometry relative="1" as="geometry">
            <mxPoint x="1017.5" y="2016" as="sourcePoint" />
            <mxPoint x="1017.5" y="2066" as="targetPoint" />
          </mxGeometry>
        </mxCell>
        <mxCell id="HEfH68VueTfFA_sg0faj-23" value="&lt;span style=&quot;color: rgb(0, 0, 0); font-family: Helvetica; font-size: 12px; font-style: normal; font-variant-ligatures: normal; font-variant-caps: normal; font-weight: 400; letter-spacing: normal; orphans: 2; text-align: center; text-indent: 0px; text-transform: none; widows: 2; word-spacing: 0px; -webkit-text-stroke-width: 0px; background-color: rgb(255, 255, 255); text-decoration-thickness: initial; text-decoration-style: initial; text-decoration-color: initial; float: none; display: inline !important;&quot;&gt;Возврат результата&lt;/span&gt;" style="text;whiteSpace=wrap;html=1;fontSize=12;" vertex="1" parent="1">
          <mxGeometry x="1194.5" y="1920" width="150" height="40" as="geometry" />
        </mxCell>
        <mxCell id="HEfH68VueTfFA_sg0faj-24" value="" style="html=1;verticalAlign=bottom;endArrow=none;dashed=1;endSize=8;rounded=0;fontSize=14;endFill=0;" edge="1" parent="1">
          <mxGeometry relative="1" as="geometry">
            <mxPoint x="1179.6599999999999" y="1976" as="sourcePoint" />
            <mxPoint x="1179.5" y="2066" as="targetPoint" />
          </mxGeometry>
        </mxCell>
        <mxCell id="HEfH68VueTfFA_sg0faj-25" value="Sequence Diagram совершения платежа/перевода" style="text;align=center;fontStyle=1;verticalAlign=middle;spacingLeft=3;spacingRight=3;strokeColor=none;rotatable=0;points=[[0,0.5],[1,0.5]];portConstraint=eastwest;fontSize=12;fillColor=#FFFFFF;" vertex="1" parent="1">
          <mxGeometry x="1149.5" y="1560" width="325.5" height="40" as="geometry" />
        </mxCell>
        <mxCell id="HEfH68VueTfFA_sg0faj-26" value="" style="endArrow=open;html=1;rounded=0;fontSize=12;dashed=1;endFill=0;exitX=-0.198;exitY=0.98;exitDx=0;exitDy=0;exitPerimeter=0;" edge="1" parent="1" target="HEfH68VueTfFA_sg0faj-1">
          <mxGeometry width="50" height="50" relative="1" as="geometry">
            <mxPoint x="1174.67" y="1964" as="sourcePoint" />
            <mxPoint x="1032.17" y="1964" as="targetPoint" />
          </mxGeometry>
        </mxCell>
        <mxCell id="HEfH68VueTfFA_sg0faj-27" value="&lt;span style=&quot;color: rgb(0, 0, 0); font-family: Helvetica; font-size: 12px; font-style: normal; font-variant-ligatures: normal; font-variant-caps: normal; font-weight: 400; letter-spacing: normal; orphans: 2; text-align: center; text-indent: 0px; text-transform: none; widows: 2; word-spacing: 0px; -webkit-text-stroke-width: 0px; background-color: rgb(255, 255, 255); text-decoration-thickness: initial; text-decoration-style: initial; text-decoration-color: initial; float: none; display: inline !important;&quot;&gt;Отображение о переводе/платеже&lt;/span&gt;" style="text;whiteSpace=wrap;html=1;fontSize=12;" vertex="1" parent="1">
          <mxGeometry x="1032.5" y="1926.75" width="150" height="40" as="geometry" />
        </mxCell>
        <mxCell id="HEfH68VueTfFA_sg0faj-28" value="&amp;nbsp;Проверяет данные, создает запись о новой транзакции в базе данных" style="shape=note;whiteSpace=wrap;html=1;backgroundOutline=1;darkOpacity=0.05;fontSize=12;fillColor=#FFFFFF;size=13;labelPosition=center;verticalLabelPosition=middle;align=center;verticalAlign=middle;" vertex="1" parent="1">
          <mxGeometry x="1527.5" y="1891.5" width="200" height="134.5" as="geometry" />
        </mxCell>
        <mxCell id="HEfH68VueTfFA_sg0faj-29" value="" style="endArrow=none;html=1;rounded=0;fontSize=12;dashed=1;endFill=0;entryX=1.19;entryY=0.245;entryDx=0;entryDy=0;entryPerimeter=0;exitX=0;exitY=0;exitDx=0;exitDy=0;exitPerimeter=0;" edge="1" parent="1" source="HEfH68VueTfFA_sg0faj-28" target="HEfH68VueTfFA_sg0faj-10">
          <mxGeometry width="50" height="50" relative="1" as="geometry">
            <mxPoint x="1617.5" y="1878" as="sourcePoint" />
            <mxPoint x="1377.5" y="1828" as="targetPoint" />
          </mxGeometry>
        </mxCell>
        <mxCell id="HEfH68VueTfFA_sg0faj-30" value="User сканирует QR получателя или вводит номер счёта получателя" style="shape=note;whiteSpace=wrap;html=1;backgroundOutline=1;darkOpacity=0.05;fontSize=12;fillColor=#FFFFFF;size=13;" vertex="1" parent="1">
          <mxGeometry x="860" y="1833" width="127.5" height="80" as="geometry" />
        </mxCell>
        <mxCell id="HEfH68VueTfFA_sg0faj-31" value="" style="html=1;verticalAlign=bottom;endArrow=none;dashed=1;endSize=8;rounded=0;fontSize=14;endFill=0;entryX=0;entryY=0;entryDx=121;entryDy=6.5;entryPerimeter=0;" edge="1" parent="1" target="HEfH68VueTfFA_sg0faj-30">
          <mxGeometry relative="1" as="geometry">
            <mxPoint x="1177.5" y="1756" as="sourcePoint" />
            <mxPoint x="1345" y="1826" as="targetPoint" />
          </mxGeometry>
        </mxCell>
        <mxCell id="HEfH68VueTfFA_sg0faj-32" value="&lt;div&gt;- проверяет, действителен ли QR-код&lt;br&gt;- проверяет, есть ли запрашиваемые средства на счёте-отправителе&lt;br&gt;- проверяет, соответствует ли сумма платежа установленным лимитам&lt;/div&gt;" style="shape=note;whiteSpace=wrap;html=1;backgroundOutline=1;darkOpacity=0.05;fontSize=12;fillColor=#FFFFFF;size=13;align=left;" vertex="1" parent="1">
          <mxGeometry x="1581.5" y="1626" width="266" height="100" as="geometry" />
        </mxCell>
        <mxCell id="HEfH68VueTfFA_sg0faj-33" value="" style="html=1;verticalAlign=bottom;endArrow=none;dashed=1;endSize=8;rounded=0;fontSize=14;endFill=0;entryX=0.977;entryY=-0.002;entryDx=0;entryDy=0;entryPerimeter=0;exitX=0;exitY=1;exitDx=0;exitDy=0;exitPerimeter=0;" edge="1" parent="1" source="HEfH68VueTfFA_sg0faj-32" target="HEfH68VueTfFA_sg0faj-10">
          <mxGeometry relative="1" as="geometry">
            <mxPoint x="1541" y="1706" as="sourcePoint" />
            <mxPoint x="1344.5" y="1789.5" as="targetPoint" />
          </mxGeometry>
        </mxCell>
      </root>
    </mxGraphModel>
  </diagram>
</mxfile>
